<svg width="132" height="70" viewBox="0 0 132 70" fill="none" xmlns="http://www.w3.org/2000/svg">
<path d="M0.873047 32V0.0078125H11.332C14.8037 0.0078125 17.4111 0.725586 19.1543 2.16113C20.9121 3.59668 21.791 5.7207 21.791 8.5332C21.791 10.0273 21.3662 11.353 20.5166 12.5103C19.667 13.6528 18.5098 14.5391 17.0449 15.1689C18.7734 15.6523 20.1357 16.5752 21.1318 17.9375C22.1426 19.2852 22.6479 20.8965 22.6479 22.7715C22.6479 25.6426 21.7178 27.8984 19.8574 29.5391C17.9971 31.1797 15.3677 32 11.9692 32H0.873047ZM5.0918 17.0366V28.5503H12.0571C14.02 28.5503 15.5654 28.0449 16.6934 27.0342C17.8359 26.0088 18.4072 24.6025 18.4072 22.8154C18.4072 18.9629 16.3125 17.0366 12.123 17.0366H5.0918ZM5.0918 13.6528H11.4639C13.3096 13.6528 14.7817 13.1914 15.8804 12.2686C16.9937 11.3457 17.5503 10.0933 17.5503 8.51123C17.5503 6.75342 17.0376 5.479 16.0122 4.68799C14.9868 3.88232 13.4268 3.47949 11.332 3.47949H5.0918V13.6528ZM38.3584 19.8931C38.3584 17.564 38.8125 15.4692 39.7207 13.6089C40.6436 11.7485 41.918 10.313 43.5439 9.30225C45.1846 8.2915 47.0522 7.78613 49.147 7.78613C52.3843 7.78613 54.999 8.90674 56.9912 11.1479C58.998 13.3892 60.0015 16.3701 60.0015 20.0908V20.3765C60.0015 22.6909 59.5547 24.771 58.6611 26.6167C57.7822 28.4478 56.5151 29.876 54.8599 30.9014C53.2192 31.9268 51.3296 32.4395 49.1909 32.4395C45.9683 32.4395 43.3535 31.3188 41.3467 29.0776C39.3545 26.8364 38.3584 23.8701 38.3584 20.1787V19.8931ZM42.4453 20.3765C42.4453 23.0132 43.0532 25.1299 44.269 26.7266C45.4995 28.3232 47.1401 29.1216 49.1909 29.1216C51.2563 29.1216 52.897 28.3159 54.1128 26.7046C55.3286 25.0786 55.9365 22.8081 55.9365 19.8931C55.9365 17.2856 55.314 15.1763 54.0688 13.5649C52.8384 11.939 51.1978 11.126 49.147 11.126C47.1401 11.126 45.5215 11.9243 44.291 13.521C43.0605 15.1177 42.4453 17.4028 42.4453 20.3765ZM75.1846 19.8931C75.1846 17.564 75.6387 15.4692 76.5469 13.6089C77.4697 11.7485 78.7441 10.313 80.3701 9.30225C82.0107 8.2915 83.8784 7.78613 85.9731 7.78613C89.2104 7.78613 91.8252 8.90674 93.8174 11.1479C95.8242 13.3892 96.8276 16.3701 96.8276 20.0908V20.3765C96.8276 22.6909 96.3809 24.771 95.4873 26.6167C94.6084 28.4478 93.3413 29.876 91.686 30.9014C90.0454 31.9268 88.1558 32.4395 86.0171 32.4395C82.7944 32.4395 80.1797 31.3188 78.1729 29.0776C76.1807 26.8364 75.1846 23.8701 75.1846 20.1787V19.8931ZM79.2715 20.3765C79.2715 23.0132 79.8794 25.1299 81.0952 26.7266C82.3257 28.3232 83.9663 29.1216 86.0171 29.1216C88.0825 29.1216 89.7231 28.3159 90.939 26.7046C92.1548 25.0786 92.7627 22.8081 92.7627 19.8931C92.7627 17.2856 92.1401 15.1763 90.895 13.5649C89.6646 11.939 88.0239 11.126 85.9731 11.126C83.9663 11.126 82.3477 11.9243 81.1172 13.521C79.8867 15.1177 79.2715 17.4028 79.2715 20.3765ZM116.933 8.22559L117.064 11.2139C118.881 8.92871 121.254 7.78613 124.184 7.78613C129.208 7.78613 131.742 10.6206 131.786 16.2896V32H127.721V16.2676C127.707 14.5537 127.311 13.2866 126.535 12.4663C125.773 11.646 124.579 11.2358 122.953 11.2358C121.635 11.2358 120.478 11.5874 119.481 12.2905C118.485 12.9937 117.709 13.9165 117.152 15.0591V32H113.087V8.22559H116.933ZM32.0278 51.2266L38.583 66.9126L45.1626 51.2266H47.1646V69H45.6631V61.2607L45.7852 53.3262L39.1689 69H38.0093L31.4175 53.3872L31.5396 61.2119V69H30.0381V51.2266H32.0278ZM59.6646 69C59.5181 68.585 59.4245 67.9705 59.3838 67.1567C58.8711 67.8241 58.216 68.3408 57.4185 68.707C56.6291 69.0651 55.7909 69.2441 54.9038 69.2441C53.6343 69.2441 52.6048 68.8901 51.8154 68.1821C51.0342 67.4741 50.6436 66.5789 50.6436 65.4966C50.6436 64.2108 51.1766 63.1935 52.2427 62.4448C53.3169 61.6961 54.8102 61.3218 56.7227 61.3218H59.3716V59.8203C59.3716 58.8763 59.0786 58.1357 58.4927 57.5986C57.9149 57.0534 57.0685 56.7808 55.9536 56.7808C54.9364 56.7808 54.0941 57.0412 53.4268 57.562C52.7594 58.0828 52.4258 58.7095 52.4258 59.4419L50.9609 59.4297C50.9609 58.3799 51.4492 57.4725 52.4258 56.7075C53.4023 55.9344 54.6027 55.5479 56.0269 55.5479C57.4998 55.5479 58.6595 55.9181 59.5059 56.6587C60.3604 57.3911 60.7998 58.4165 60.8242 59.7349V65.9849C60.8242 67.2625 60.9585 68.2188 61.2271 68.8535V69H59.6646ZM55.0747 67.9502C56.0513 67.9502 56.922 67.7142 57.687 67.2422C58.4601 66.7702 59.0216 66.1395 59.3716 65.3501V62.4448H56.7593C55.3026 62.4611 54.1632 62.7297 53.3413 63.2505C52.5194 63.7632 52.1084 64.4712 52.1084 65.3745C52.1084 66.1151 52.381 66.7295 52.9263 67.2178C53.4797 67.7061 54.1958 67.9502 55.0747 67.9502ZM70.834 57.0371C70.5247 56.9801 70.1951 56.9517 69.8452 56.9517C68.9338 56.9517 68.1606 57.208 67.5259 57.7207C66.8993 58.2253 66.4517 58.9618 66.1831 59.9302V69H64.7305V55.792H66.1587L66.1831 57.8916C66.9562 56.3291 68.1973 55.5479 69.9062 55.5479C70.3132 55.5479 70.6346 55.6007 70.8706 55.7065L70.834 57.0371ZM76.2905 62.3472L74.6182 63.9585V69H73.1533V50.25H74.6182V62.2495L75.9976 60.7603L81.0513 55.792H82.8945L77.2915 61.3584L83.3828 69H81.6372L76.2905 62.3472ZM90.2798 69.2441C89.1567 69.2441 88.1395 68.9674 87.228 68.4141C86.3247 67.8607 85.6208 67.0916 85.1162 66.1069C84.6117 65.1141 84.3594 64.0033 84.3594 62.7744V62.2495C84.3594 60.98 84.6035 59.8366 85.0918 58.8193C85.5882 57.8021 86.2759 57.0046 87.1548 56.4268C88.0337 55.8408 88.9858 55.5479 90.0112 55.5479C91.6144 55.5479 92.884 56.0972 93.8198 57.1958C94.7638 58.2863 95.2358 59.7796 95.2358 61.6758V62.4937H85.812V62.7744C85.812 64.2718 86.2393 65.521 87.0938 66.522C87.9564 67.5148 89.0387 68.0112 90.3408 68.0112C91.1221 68.0112 91.8097 67.8688 92.4038 67.584C93.006 67.2992 93.5513 66.8434 94.0396 66.2168L94.9551 66.9126C93.8809 68.467 92.3224 69.2441 90.2798 69.2441ZM90.0112 56.793C88.9126 56.793 87.9849 57.1958 87.228 58.0015C86.4793 58.8071 86.0236 59.8895 85.8608 61.2485H93.7832V61.0898C93.7425 59.8203 93.3804 58.7868 92.6968 57.9893C92.0132 57.1917 91.118 56.793 90.0112 56.793ZM100.351 52.4106V55.792H103.085V56.9883H100.351V65.7896C100.351 66.522 100.481 67.0672 100.741 67.4253C101.01 67.7834 101.453 67.9624 102.072 67.9624C102.316 67.9624 102.711 67.9217 103.256 67.8403L103.317 69.0366C102.934 69.175 102.414 69.2441 101.754 69.2441C100.753 69.2441 100.025 68.9552 99.5693 68.3774C99.1136 67.7915 98.8857 66.9329 98.8857 65.8018V56.9883H96.4565V55.792H98.8857V52.4106H100.351Z" fill="#747474"/>
</svg>
